<?xml version="1.0" encoding="UTF-8" standalone="no"?>
<!-- Created with Inkscape (http://www.inkscape.org/) -->

<svg
   xmlns:dc="http://purl.org/dc/elements/1.1/"
   xmlns:cc="http://creativecommons.org/ns#"
   xmlns:rdf="http://www.w3.org/1999/02/22-rdf-syntax-ns#"
   xmlns:svg="http://www.w3.org/2000/svg"
   xmlns="http://www.w3.org/2000/svg"
   xmlns:sodipodi="http://sodipodi.sourceforge.net/DTD/sodipodi-0.dtd"
   xmlns:inkscape="http://www.inkscape.org/namespaces/inkscape"
   width="1024"
   height="1024"
   viewBox="0 0 270.93333 270.93334"
   version="1.1"
   id="svg5653"
   inkscape:version="0.92.3 (2405546, 2018-03-11)"
   sodipodi:docname="logo.svg">
  <defs
     id="defs5647" />
  <sodipodi:namedview
     id="base"
     pagecolor="#ffffff"
     bordercolor="#666666"
     borderopacity="1.0"
     inkscape:pageopacity="0.0"
     inkscape:pageshadow="2"
     inkscape:zoom="0.48828125"
     inkscape:cx="532.60981"
     inkscape:cy="471.93429"
     inkscape:document-units="px"
     inkscape:current-layer="g6322"
     showgrid="false"
     units="px"
     inkscape:window-width="1600"
     inkscape:window-height="863"
     inkscape:window-x="0"
     inkscape:window-y="0"
     inkscape:window-maximized="1" />
  <metadata
     id="metadata5650">
    <rdf:RDF>
      <cc:Work
         rdf:about="">
        <dc:format>image/svg+xml</dc:format>
        <dc:type
           rdf:resource="http://purl.org/dc/dcmitype/StillImage" />
        <dc:title></dc:title>
      </cc:Work>
    </rdf:RDF>
  </metadata>
  <g
     inkscape:label="Layer 1"
     inkscape:groupmode="layer"
     id="layer1"
     transform="translate(0,-26.06664)">
    <g
       id="g6322"
       transform="translate(2.1018432,5.1741256)">
      <g
         inkscape:export-ydpi="193.35654"
         inkscape:export-xdpi="193.35654"
         transform="matrix(1.3443981,0,0,-1.3443981,155.51742,140.94042)"
         id="g4816">
        <path
           style="fill:#00090b;fill-opacity:1;fill-rule:nonzero;stroke:none;stroke-width:1"
           d="m -17.634842,77.385382 -34.802843,-91.253007 16.327839,8.5998107 0.249079,0.1310737 0.111088,0.011147 7.70804,29.7009236 z M -16.428646,75.991224 -26.593665,24.408123 5.8763535,-1.2806062 27.574414,-8.8875533 Z M -26.984584,22.865206 -34.207532,-4.9668434 3.3113636,-1.1026361 Z M 4.7293544,-2.4176116 -34.873669,-6.4966899 l -0.262919,-0.1360705 -16.644185,-8.6390186 0.124156,-0.05189 64.012138,-26.751163 0.185658,-0.07688 16.303237,31.278048 z m -59.2357904,-12.5028404 0.07649,-0.09763 0.02152,0.05689 z m 2.288617,-1.743178 33.447125,-42.706921 30.566937,15.954988 z"
           id="path4818"
           inkscape:connector-curvature="0" />
      </g>
      <g
         inkscape:export-ydpi="193.35654"
         inkscape:export-xdpi="193.35654"
         transform="matrix(1.3443981,0,0,-1.3443981,111.61046,104.59973)"
         id="g4820" />
      <g
         inkscape:export-ydpi="193.35654"
         inkscape:export-xdpi="193.35654"
         transform="matrix(1.3443981,0,0,-1.3443981,76.394766,158.69857)"
         id="g4824" />
      <g
         inkscape:export-ydpi="193.35654"
         inkscape:export-xdpi="193.35654"
         transform="matrix(1.3443981,0,0,-1.3443981,76.007579,157.7481)"
         id="g4828" />
      <g
         inkscape:export-ydpi="193.35654"
         inkscape:export-xdpi="193.35654"
         transform="matrix(1.3443981,0,0,-1.3443981,124.66578,33.30468)"
         id="g4832" />
      <path
         style="fill:#00090b;fill-opacity:1;fill-rule:nonzero;stroke:none;stroke-width:5.08118963"
         d="M 934.53516 841.20703 L 934.53516 856.43555 L 934.53516 981.18945 L 934.53516 985.95117 L 939.29102 985.95117 L 945.2207 985.95117 L 949.98242 985.95117 L 949.98242 981.18945 L 949.98242 890.00195 L 958.69727 902.24219 L 961.86719 906.69922 L 965.8457 902.94922 L 969.79297 899.20898 L 972.77148 896.4043 L 970.43945 893.04688 L 943.20312 853.72852 L 934.53516 841.20703 z M 819.34766 842.87695 L 814.98828 853.2793 L 761.83398 980.00781 L 759.06445 986.60938 L 766.21875 986.60938 L 773.0332 986.60938 L 776.21289 986.60938 L 777.42773 983.66797 L 819.4043 882.18555 L 862.43164 983.70703 L 863.66016 986.60938 L 866.81641 986.60938 L 873.18359 986.60938 L 880.37891 986.60938 L 877.5625 979.98828 L 823.75391 853.25781 L 819.34766 842.87695 z M 1008.5527 851.46094 L 1008.5527 856.22266 L 1008.5527 947.43945 L 1000.7324 936.28711 L 997.56836 931.76953 L 993.56445 935.56445 L 989.38672 939.51953 L 986.41992 942.33398 L 988.75781 945.69141 L 1015.332 983.90234 L 1024 996.37109 L 1024 981.18945 L 1024 856.22266 L 1024 851.46094 L 1019.2383 851.46094 L 1013.3086 851.46094 L 1008.5527 851.46094 z M 56.8125 853.6543 C 47.981392 853.6543 40.07477 855.19817 33.332031 858.25195 C 26.223447 861.64113 20.233762 866.17941 15.421875 871.78906 C 5.1832778 883.92293 0 900.25352 0 920.34961 C 0 931.54347 1.275827 940.8016 3.7910156 947.85938 C 6.4129096 956.04009 10.329363 963.30613 15.400391 969.32227 C 19.053766 973.94108 23.530138 977.74676 28.611328 980.53125 C 33.164074 983.04645 37.671605 984.89074 42.005859 986.01367 L 46.259766 987.11523 L 46.376953 986.75977 L 46.376953 971.08984 C 42.581304 969.93134 39.618795 968.6251 37.601562 967.19727 C 33.821157 964.63127 30.603156 961.76128 27.960938 958.5957 C 20.725323 948.98716 16.986328 935.98416 16.986328 920.13086 C 16.986328 912.81396 17.895015 905.68998 19.683594 898.94727 C 21.777044 892.27564 24.613944 886.58035 28.048828 882.2207 C 32.139186 877.23604 36.391591 873.77996 40.619141 872.03711 L 40.730469 871.99219 L 40.837891 871.94141 C 45.741238 869.6193 51.116484 868.43945 56.8125 868.43945 C 63.062361 868.43945 68.550356 869.60293 73.138672 871.89453 L 73.25 871.95508 L 73.376953 872.00586 C 78.026241 874.018 82.279776 877.45377 86.019531 882.21484 C 89.449335 886.57959 92.278771 892.27554 94.443359 899.15039 C 96.186209 904.93787 97.082031 912.01111 97.082031 920.13086 C 97.082031 928.28617 96.182712 935.60794 94.404297 941.89844 C 92.41755 948.39223 89.576381 954.08821 85.994141 958.73242 C 83.367165 961.85227 80.105739 964.7181 76.421875 967.08594 C 74.236964 968.62043 71.288997 969.92585 67.513672 971.07422 L 67.513672 986.96875 L 71.507812 986.04492 C 75.699792 985.07948 80.378999 983.22818 85.404297 980.56055 C 89.880826 978.07585 94.357486 974.35176 98.783203 969.44336 L 98.859375 969.35742 L 98.935547 969.26562 C 103.81857 963.27999 107.71589 956.05888 110.51562 947.79688 C 113.0359 939.3062 114.28711 930.13091 114.28711 920.34961 C 114.28711 910.86372 113.03512 901.8389 110.57617 893.52148 C 107.71546 885.08671 103.81935 877.86574 98.941406 871.875 C 93.855137 866.13326 87.630192 861.60006 80.318359 858.26172 C 73.722978 855.20794 65.806203 853.6543 56.8125 853.6543 z M 195.14648 853.94727 C 192.70751 853.94727 189.70918 853.99895 186.15234 854.0957 C 181.02543 854.2431 177.58933 854.31445 175.85156 854.31445 L 171.0957 854.31445 L 171.0957 859.07422 L 171.0957 874.88281 L 171.0957 879.64844 L 175.85156 879.64844 L 182.22461 879.64844 L 186.98438 879.64844 L 186.98438 874.88281 L 186.98438 870.28906 L 188.1543 870.28906 C 191.11663 870.28906 194.06936 870.2237 196.94531 870.0918 C 197.64652 870.05778 198.36285 870.04102 199.07422 870.04102 C 202.69202 870.04102 206.51678 870.46121 210.43945 871.30469 C 214.87025 872.2549 218.53893 873.78938 221.34375 875.85742 C 225.97779 879.3025 228.518 883.51092 229.10742 888.70898 C 229.68668 893.88161 228.2295 898.39908 224.65234 902.50977 C 220.98372 906.71698 215.87171 909.05782 209.02734 909.67773 L 204.69922 910.07031 L 204.69922 914.41992 L 204.69922 922.10742 L 204.69922 926.32422 L 208.88477 926.83203 C 216.07973 927.70091 221.32868 930.52204 224.94141 935.46094 C 228.61003 940.47611 230.01297 945.66963 229.23047 951.33008 C 228.46321 956.88889 226.06384 960.98772 221.90234 963.87891 C 218.52844 966.34331 214.64288 968.07086 210.25781 969.08203 C 206.14205 970.04237 202.15852 970.52148 198.39844 970.52148 C 197.92589 970.52148 197.45302 970.51707 196.98047 970.50195 C 194.6228 970.4309 192.20345 970.39453 189.71875 970.39453 C 188.8143 970.39453 187.89899 970.39882 186.98438 970.41016 L 186.98438 966.69141 L 186.98438 961.93555 L 182.22461 961.93555 L 175.85156 961.93555 L 171.0957 961.93555 L 171.0957 966.69141 L 171.0957 981.19336 L 171.0957 985.95312 L 175.85156 985.95312 C 177.7875 985.95312 182.30595 986.10028 189.27734 986.38477 C 193.30164 986.55749 196.75066 986.64062 199.53516 986.64062 C 201.69974 986.64062 203.52374 986.58995 204.9668 986.48828 C 208.40676 986.2445 212.69013 985.35329 218.05078 983.7832 C 223.6096 982.14198 228.5147 979.64262 232.64062 976.33984 C 238.33664 971.98016 242.25819 966.32008 244.22461 959.57227 C 246.14022 952.99721 246.33919 946.55528 244.83008 940.41211 C 243.33621 934.36041 240.36357 928.74445 236.00391 923.70898 C 234.17976 921.61048 232.2083 919.80716 230.09961 918.29297 C 233.87493 915.80827 237.05549 912.53991 239.61133 908.51562 C 244.1844 901.32065 245.82035 893.30285 244.46875 884.69531 C 243.10191 875.99631 238.64081 868.75102 231.20703 863.17188 C 228.29043 860.91077 224.98262 859.0266 221.42578 857.61914 C 217.86387 856.21164 213.74337 855.26082 209.18555 854.7832 C 204.93767 854.33098 201.29824 854.06137 198.38672 853.99023 C 197.43145 853.96378 196.35581 853.94922 195.14648 853.94922 L 195.14648 853.94727 z M 351.78125 854.97461 C 345.55679 854.97461 339.84913 855.60901 334.80859 856.86914 C 329.75789 858.37827 325.38783 860.44136 321.60742 863.06836 C 317.46117 866.13231 314.50968 869.7362 312.71094 873.86719 L 312.66016 873.98242 L 312.61523 874.10938 C 310.95877 878.58082 310.11914 883.04856 310.11914 887.4082 C 310.11914 891.26483 310.54713 894.44525 311.41602 897.12305 C 312.15787 899.81101 313.56478 902.64122 315.60742 905.52734 L 316.11523 906.24805 L 316.83789 906.73242 L 316.83203 906.73242 C 316.81691 906.73242 317.10667 906.996 317.72656 907.72266 C 318.64117 908.81509 319.36728 909.60241 319.86523 910.10547 C 320.07356 910.31901 320.22091 910.47056 323.76758 913.30078 C 327.43112 916.02427 333.25935 919.7996 341.72461 924.95703 C 349.6157 929.78413 355.46927 933.70722 359.13281 936.62891 C 361.08907 938.62072 362.77183 940.81656 364.13867 943.16406 C 365.50551 945.34391 366.13086 947.59881 366.13086 950.2207 C 366.13086 953.35582 365.59204 956.20165 364.53516 958.66602 C 363.29026 961.25745 361.67925 963.55947 359.81445 965.33789 C 357.54824 967.22301 354.86939 968.66661 351.86133 969.62695 C 349.82885 970.2316 347.32395 970.6487 344.5293 970.8418 C 343.2844 970.92835 342.05542 970.96875 340.83594 970.96875 C 339.23536 970.96875 337.64389 970.89255 336.10938 970.74023 C 333.11656 970.45564 330.0277 970.12443 326.8418 969.76367 C 323.75751 969.40802 320.96903 969.01742 318.56055 968.5957 L 312.97656 967.61523 L 312.97656 973.2793 L 312.97656 979.21484 L 312.97656 983.65039 L 317.40039 983.96094 C 319.27027 984.09284 322.29972 984.43793 326.6543 985.02734 C 331.15115 985.63709 334.61093 986.00889 337.22266 986.15625 C 338.14743 986.21219 339.14389 986.24219 340.21094 986.24219 C 342.24342 986.24219 344.52506 986.13498 347.00977 985.93164 C 350.97309 985.6066 354.70771 984.86477 358.11719 983.72656 C 362.79696 982.05994 367.17686 979.58162 371.22656 976.33984 L 371.34766 976.24219 L 371.46484 976.14062 C 375.2859 972.64475 378.24761 968.66159 380.25977 964.29688 L 380.31641 964.16992 L 380.36719 964.04297 C 382.19133 959.40383 383.11719 954.30678 383.11719 948.90039 C 383.11719 945.12506 382.60919 941.79701 381.61328 938.99219 C 381.00354 936.42619 379.72153 933.69755 377.69922 930.66406 C 376.67282 929.23117 375.25556 927.77296 373.16211 925.98438 C 372.27798 924.98847 371.00855 923.9527 369.13867 922.6875 C 365.22107 919.44062 359.36272 915.5322 351.22266 910.75586 C 343.59071 906.27935 337.95913 902.60675 334.47852 899.84766 C 331.95316 897.43915 329.96257 895.26793 328.54492 893.38281 C 326.81732 890.25786 326.44531 888.29716 326.44531 887.18945 C 326.44531 884.43546 326.98996 882.06766 328.09766 879.95898 C 329.1139 877.93157 330.69792 876.13806 332.85742 874.55273 C 335.25574 872.95214 337.89411 871.71179 340.53125 870.96484 C 345.09924 870.1671 348.88497 869.76172 351.78125 869.76172 L 353.31445 869.76172 L 358.07617 869.76172 L 358.07617 865.00586 L 358.07617 859.73633 L 358.07617 854.97461 L 353.31445 854.97461 L 351.78125 854.97461 z M 460.13086 855.85352 L 460.13086 860.61523 L 460.13086 980.97266 L 460.13086 985.73438 L 464.89258 985.73438 L 471.91406 985.73438 L 476.67578 985.73438 L 476.67578 980.97266 L 476.67578 860.61523 L 476.67578 855.85352 L 471.91406 855.85352 L 464.89258 855.85352 L 460.13086 855.85352 z M 529.5293 855.85352 L 529.5293 860.61523 L 529.5293 872.6875 L 529.5293 877.44922 L 534.29102 877.44922 L 541.09961 877.44922 L 545.85547 877.44922 L 545.85547 872.6875 L 545.85547 871.08594 C 550.14909 871.10106 553.39101 871.13648 555.35742 871.1875 C 557.68463 871.25364 561.36265 871.68078 566.28125 872.45312 C 570.81366 873.16447 574.63963 874.38025 577.64258 876.07227 C 580.76753 877.83035 583.96958 880.33362 587.15039 883.51953 C 593.42569 889.79479 597.48531 898.44975 599.21289 909.24219 C 600.30536 916.59976 600.30498 924.19036 599.20117 931.74609 C 597.23982 942.35054 592.91018 950.93811 586.38086 957.07617 C 582.21427 961.2377 577.5851 964.31598 572.50391 966.32812 C 567.24995 968.42161 562.64648 969.64671 558.82031 969.9668 C 555.57343 970.2461 551.2294 970.41365 545.85352 970.47461 L 545.85352 969.10742 L 545.85352 964.35156 L 541.09766 964.35156 L 534.28906 964.35156 L 529.52734 964.35156 L 529.52734 969.10742 L 529.52734 981.19141 L 529.52734 985.70312 L 534.03516 985.94141 C 537.76982 986.14474 541.5544 986.24219 545.28906 986.24219 C 547.19961 986.24219 549.10157 986.21591 551.00195 986.16602 C 556.67253 986.01861 562.04783 985.55594 566.97656 984.79883 C 572.20002 983.99092 577.61118 982.21726 583.06836 979.5293 C 588.53065 976.84133 593.77517 973.07587 598.6582 968.35547 C 608.29211 959.50911 614.19532 948.0563 616.0957 934.4082 C 617.76743 924.83016 617.76837 915.11077 616.06641 905.66992 C 614.19652 892.37245 608.53605 881.09084 599.2832 872.31055 L 599.16992 872.20508 L 599.04883 872.09766 C 589.84681 864.46063 580.28983 859.55202 570.64062 857.49414 C 564.91942 856.38141 553.05466 855.85355 534.29102 855.85352 L 534.28906 855.85352 L 529.5293 855.85352 z M 695.57227 855.85352 L 695.57227 860.61523 L 695.57227 980.97266 L 695.57227 985.73438 L 700.33398 985.73438 L 707.36133 985.73438 L 712.12305 985.73438 L 712.12305 980.97266 L 712.12305 860.61523 L 712.12305 855.85352 L 707.36133 855.85352 L 700.33398 855.85352 L 695.57227 855.85352 z "
         transform="matrix(0.26458333,0,0,0.26458333,-2.1018432,20.892514)"
         id="path4842" />
      <g
         id="g6382" />
    </g>
  </g>
</svg>
